<?xml version="1.0" standalone="no"?>
<!DOCTYPE svg PUBLIC "-//W3C//DTD SVG 20010904//EN"
 "http://www.w3.org/TR/2001/REC-SVG-20010904/DTD/svg10.dtd">
<svg version="1.0" xmlns="http://www.w3.org/2000/svg"
 width="1024.000000pt" height="1024.000000pt" viewBox="0 0 1024.000000 1024.000000"
 preserveAspectRatio="xMidYMid meet">

<g transform="translate(0.000000,1024.000000) scale(0.100000,-0.100000)"
fill="#000000" stroke="none">
<path d="M2760 7894 c-19 -2 -57 -8 -85 -14 -27 -5 -66 -12 -85 -15 -44 -7
-93 -20 -167 -44 -241 -79 -448 -207 -629 -386 -203 -203 -331 -415 -409 -681
-60 -202 -58 -145 -62 -1554 -5 -1380 -3 -1448 43 -1625 79 -308 212 -544 424
-755 140 -140 266 -231 425 -309 177 -87 345 -137 545 -161 108 -13 4732 -10
4785 3 17 4 66 14 110 23 176 34 416 134 555 232 337 237 549 532 655 912 55
199 56 234 52 1690 -5 1378 -3 1322 -45 1500 -98 407 -394 787 -776 995 -131
71 -333 145 -439 160 -23 4 -60 12 -82 18 -29 8 -664 12 -2410 13 -1303 0
-2386 -1 -2405 -2z m1680 -2769 l0 -2315 -819 0 c-894 0 -906 1 -1074 59 -150
52 -252 112 -375 220 -194 170 -313 382 -357 635 -13 77 -15 264 -15 1387 0
833 4 1326 10 1376 32 238 172 497 360 666 123 111 327 218 486 256 106 25
207 28 987 30 l797 1 0 -2315z m3101 2295 c457 -88 796 -422 888 -877 21 -99
21 -126 21 -1405 0 -811 -4 -1329 -10 -1373 -64 -451 -373 -793 -835 -927
l-80 -23 -1312 -3 -1313 -3 0 2316 0 2315 1273 -1 c1194 0 1278 -1 1368 -19z"/>
<path d="M2455 6431 c-95 -43 -145 -117 -145 -214 0 -94 37 -155 120 -199 l45
-23 629 -3 c700 -3 696 -3 773 62 71 61 94 163 58 254 -22 55 -92 116 -150
131 -30 7 -241 11 -667 11 -581 0 -626 -2 -663 -19z"/>
<path d="M2470 5433 c-25 -9 -57 -25 -72 -35 -66 -46 -105 -172 -78 -252 16
-49 63 -102 114 -129 l41 -22 660 0 c657 0 660 0 700 22 179 96 152 353 -43
415 -47 15 -121 16 -665 17 -533 0 -618 -2 -657 -16z"/>
<path d="M2445 4431 c-84 -39 -135 -120 -135 -213 1 -105 72 -196 171 -218 39
-8 233 -10 684 -8 l630 3 45 25 c67 38 103 96 108 174 5 79 -8 121 -55 176
-72 84 -34 80 -763 80 -607 0 -647 -2 -685 -19z"/>
</g>
</svg>
